<svg width="129" height="147" viewBox="0 0 129 147" fill="none" xmlns="http://www.w3.org/2000/svg">
<path opacity="0.3" d="M76.1662 146.411L76.1076 146.402L75.9185 146.356C74.8107 146.081 73.7068 145.789 72.6073 145.482C59.3705 141.719 46.5613 136.564 34.3924 130.103C12.8078 118.535 -11.9029 99.4088 -19.8308 69.8211C-25.7465 47.7435 -11.9693 25.2866 10.3219 19.3137C16.5106 17.6227 23.003 17.3571 29.3164 18.5365C35.6297 19.7159 41.6016 22.31 46.7878 26.126C49.3717 20.227 53.2475 14.9935 58.1267 10.815C63.0059 6.63651 68.7629 3.62051 74.9695 1.99141C97.2532 -3.97949 120.413 8.58015 126.329 30.6578C134.259 60.2529 122.422 89.1724 109.509 109.967C102.201 121.647 93.6853 132.516 84.1032 142.393C83.3055 143.212 82.496 144.019 81.6749 144.814L81.5343 144.948L81.4899 144.993L81.4694 145.006C80.7727 145.657 79.9276 146.126 79.0078 146.373C78.088 146.619 77.1215 146.635 76.1927 146.42L76.1682 146.419L76.1662 146.411Z" fill="#FF6390"/>
</svg>
