<svg width="67" height="74" viewBox="0 0 67 74" fill="none" xmlns="http://www.w3.org/2000/svg">
<path opacity="0.5" d="M24.9253 73.0867L24.9016 73.0681L24.83 72.9999C24.4114 72.5985 23.9986 72.1911 23.5917 71.7779C18.7093 66.7759 14.3683 61.2736 10.6407 55.3623C4.05623 44.8303 -1.99005 30.1996 2.01606 15.2486C5.00532 4.09253 16.774 -2.2364 28.1174 0.803042C31.2749 1.63256 34.2049 3.16249 36.6897 5.27907C39.1744 7.39564 41.1499 10.0444 42.4691 13.0283C45.1041 11.1034 48.14 9.7971 51.3508 9.20662C54.5617 8.61615 57.8648 8.7567 61.0146 9.61782C72.3541 12.6562 79.3816 24.0216 76.3923 35.1777C72.3852 50.1325 59.8336 59.7799 48.8673 65.601C42.6836 68.8567 36.173 71.4513 29.4437 73.3418C28.8844 73.4976 28.3228 73.6453 27.7593 73.7848L27.6631 73.808L27.6323 73.8161L27.6199 73.8169C27.1476 73.9249 26.656 73.9158 26.188 73.7904C25.7199 73.665 25.2896 73.4271 24.9347 73.0974L24.9243 73.0905L24.9253 73.0867Z" fill="#DF89C6"/>
</svg>
