<svg width="97" height="76" viewBox="0 0 97 76" fill="none" xmlns="http://www.w3.org/2000/svg">
<path d="M95.1814 44.1779C95.7353 43.8731 96.1965 43.4241 96.5162 42.8786C96.8359 42.3331 97.0021 41.7113 96.9974 41.0791C96.9926 40.4468 96.8171 39.8276 96.4892 39.287C96.1614 38.7463 95.6935 38.3044 95.1351 38.0078L60.9549 19.9109L32.7959 48.0698C32.1382 48.7275 31.2462 49.097 30.316 49.097C29.3858 49.097 28.4938 48.7275 27.836 48.0698C27.1783 47.4121 26.8088 46.52 26.8088 45.5898C26.8088 44.6597 27.1783 43.7676 27.8361 43.1099L55.995 14.951L37.898 -19.2293C37.6015 -19.7877 37.1595 -20.2556 36.6189 -20.5834C36.0782 -20.9112 35.459 -21.0868 34.8268 -21.0915C34.1945 -21.0963 33.5727 -20.93 33.0272 -20.6103C32.4817 -20.2907 32.0328 -19.8295 31.7279 -19.2755C16.2158 8.95829 5.63809 39.6334 0.45086 71.4275C0.36101 71.9767 0.403135 72.5394 0.573745 73.0691C0.744364 73.5988 1.03858 74.0803 1.43207 74.4738C1.82557 74.8673 2.30705 75.1615 2.83674 75.3321C3.36642 75.5027 3.9291 75.5448 4.47829 75.455C36.2725 70.2679 66.9476 59.6903 95.1814 44.1779Z" fill="#CF4FA9"/>
</svg>
