<svg width="98" height="82" viewBox="0 0 98 82" fill="none" xmlns="http://www.w3.org/2000/svg">
<path fill-rule="evenodd" clip-rule="evenodd" d="M51.7141 1.54229C51.0239 0.886092 50.1091 0.520325 49.1581 0.520325C48.2071 0.520325 47.2923 0.886092 46.6021 1.54229C36.0871 11.5568 22.0828 17.0484 7.58328 16.8431C6.79336 16.8328 6.02074 17.0753 5.3776 17.5354C4.73446 17.9955 4.2543 18.6492 4.00684 19.4015C1.91633 25.791 0.854516 32.4737 0.861361 39.1982C0.861361 68.7169 20.9924 93.5113 48.2318 100.541C48.8394 100.698 49.4768 100.698 50.0844 100.541C77.3238 93.5113 97.4548 68.7169 97.4548 39.1982C97.4548 32.293 96.3502 25.6361 94.3093 19.4015C94.0627 18.6482 93.5829 17.9935 92.9397 17.5324C92.2965 17.0714 91.5234 16.8282 90.7329 16.8382L90.0246 16.8431C75.1838 16.8431 61.7053 11.0308 51.7141 1.54229ZM67.0403 41.3642C67.3375 40.967 67.5525 40.5143 67.6728 40.0326C67.793 39.5509 67.816 39.0499 67.7405 38.5592C67.6649 38.0684 67.4923 37.5977 67.2327 37.1748C66.9732 36.752 66.632 36.3854 66.2292 36.0966C65.8263 35.8078 65.37 35.6028 64.887 35.4934C64.404 35.384 63.9041 35.3726 63.4167 35.4598C62.9292 35.547 62.464 35.731 62.0485 36.001C61.633 36.2711 61.2755 36.6217 60.997 37.0323L44.9674 59.5364L36.9229 51.4687C36.2187 50.8106 35.2872 50.4523 34.3247 50.4693C33.3622 50.4864 32.4439 50.8774 31.7632 51.56C31.0826 52.2427 30.6927 53.1636 30.6757 54.1289C30.6587 55.0941 31.016 56.0283 31.6722 56.7346L42.8176 67.9122C43.199 68.2943 43.6587 68.5887 44.1649 68.7748C44.6711 68.9609 45.2116 69.0343 45.7489 68.9898C46.2862 68.9454 46.8074 68.7842 47.2764 68.5175C47.7454 68.2508 48.1508 67.8848 48.4646 67.4452L67.0403 41.3642Z" fill="#EFC4E2"/>
</svg>
